<?xml version="1.0" standalone="no"?>
<!DOCTYPE svg PUBLIC "-//W3C//DTD SVG 20010904//EN"
 "http://www.w3.org/TR/2001/REC-SVG-20010904/DTD/svg10.dtd">
<svg version="1.0" xmlns="http://www.w3.org/2000/svg"
 width="600.000000pt" height="600.000000pt" viewBox="0 0 600.000000 600.000000"
 preserveAspectRatio="xMidYMid meet">
<metadata>
Created by potrace 1.14, written by Peter Selinger 2001-2017
</metadata>
<g transform="translate(0.000000,600.000000) scale(0.100000,-0.100000)"
fill="#000000" stroke="none">
<path d="M4498 5850 c181 -121 238 -286 147 -426 l-25 -39 28 33 c34 39 52 92
52 155 0 50 -37 130 -92 198 -31 38 -141 119 -161 119 -5 0 18 -18 51 -40z"/>
<path d="M3285 5835 c17 -8 68 -32 115 -53 81 -38 230 -150 230 -173 0 -5 11
-22 25 -37 29 -31 33 -54 8 -45 -10 4 -20 9 -23 13 -8 11 -89 40 -108 39 -9 0
1 -7 22 -15 74 -27 141 -62 163 -86 13 -13 35 -53 50 -89 22 -52 27 -80 27
-151 1 -59 4 -80 9 -65 11 26 1 177 -14 230 -6 22 -8 41 -5 44 3 3 27 -8 53
-26 64 -41 75 -50 68 -62 -4 -5 0 -9 7 -9 16 0 80 -33 131 -67 45 -31 61 -25
18 7 -40 28 -39 41 1 29 18 -5 51 -9 73 -9 62 1 23 16 -74 29 -86 11 -160 43
-204 87 -13 12 -34 25 -48 29 -14 3 -38 17 -53 30 -15 13 -36 29 -48 37 -11 7
-22 27 -23 42 -4 35 -77 112 -153 163 -58 39 -239 123 -262 122 -8 0 -1 -7 15
-14z"/>
<path d="M4271 5714 c0 -11 3 -14 6 -6 3 7 2 16 -1 19 -3 4 -6 -2 -5 -13z"/>
<path d="M1410 5606 c0 -12 -11 -16 -47 -16 -27 0 -57 -7 -68 -16 -19 -14 -17
-15 25 -9 25 4 56 8 68 11 15 3 21 1 17 -6 -3 -5 2 -10 13 -10 15 0 18 5 14
25 -5 29 -22 44 -22 21z"/>
<path d="M4055 5613 c-11 -3 -31 -15 -45 -28 -14 -12 -44 -34 -67 -49 -23 -14
-47 -35 -53 -47 -9 -16 -18 -19 -36 -15 -13 4 -24 3 -24 -1 0 -11 50 -33 74
-33 34 0 101 28 98 40 -1 7 5 9 15 6 10 -3 25 -1 33 4 12 8 12 10 1 10 -8 0
-5 7 9 18 22 18 52 87 42 97 -6 6 -17 5 -47 -2z"/>
<path d="M3450 5596 c0 -2 11 -6 25 -8 13 -3 22 -1 19 3 -5 9 -44 13 -44 5z"/>
<path d="M1183 5537 c-17 -7 -35 -16 -40 -20 -4 -5 4 -4 19 2 14 5 28 7 32 4
8 -8 56 6 56 17 0 13 -27 12 -67 -3z"/>
<path d="M367 5499 c-9 -17 -26 -33 -37 -36 -27 -7 -25 -19 6 -39 14 -9 32
-30 40 -45 19 -38 27 -36 43 6 7 19 21 40 32 45 25 14 24 28 -3 32 -15 2 -28
15 -37 36 -8 17 -17 32 -20 32 -3 0 -14 -14 -24 -31z"/>
<path d="M4505 5345 c-39 -14 -40 -14 -5 -8 41 7 82 22 60 22 -8 0 -33 -7 -55
-14z"/>
<path d="M4420 5250 c8 -5 22 -9 30 -9 10 0 8 3 -5 9 -27 12 -43 12 -25 0z"/>
<path d="M1659 5219 c-22 -52 -19 -277 4 -353 10 -32 20 -57 22 -55 2 2 -4 40
-12 84 -16 89 -12 269 7 305 14 26 39 20 90 -21 80 -65 184 -139 188 -134 10
9 -34 48 -110 98 -43 28 -78 55 -78 60 0 6 23 7 60 3 33 -4 84 -9 113 -11 29
-2 67 -6 83 -9 16 -3 9 1 -16 9 -25 9 -60 17 -78 20 -18 2 -36 7 -41 10 -10 5
-42 10 -147 20 l-71 7 -14 -33z"/>
<path d="M4480 5224 c8 -8 34 -27 59 -41 25 -13 71 -38 101 -55 30 -16 93 -55
139 -85 177 -116 355 -195 432 -192 13 1 -12 10 -55 20 -94 23 -240 94 -380
186 -55 36 -117 76 -136 89 -53 34 -133 79 -154 87 -16 7 -17 5 -6 -9z"/>
<path d="M1109 5157 c-42 -29 -85 -57 -95 -64 -10 -7 -1 -5 21 3 35 14 155 99
155 110 0 6 3 8 -81 -49z"/>
<path d="M2890 5206 c0 -12 29 -76 35 -76 3 0 -2 17 -10 37 -16 38 -25 52 -25
39z"/>
<path d="M3364 5169 c-19 -22 -19 -22 4 -10 12 6 22 16 22 21 0 15 -5 12 -26
-11z"/>
<path d="M2070 5176 c0 -6 172 -67 176 -63 4 4 -156 67 -168 67 -5 0 -8 -2 -8
-4z"/>
<path d="M3304 5108 c-44 -49 -68 -78 -62 -78 2 0 26 25 52 55 51 60 58 75 10
23z"/>
<path d="M2275 5100 c27 -12 43 -12 25 0 -8 5 -22 9 -30 9 -10 0 -8 -3 5 -9z"/>
<path d="M2325 5082 c6 -6 48 -30 95 -53 47 -24 96 -51 110 -60 97 -66 172
-109 180 -104 6 4 9 1 8 -6 -2 -7 5 -15 15 -17 24 -5 21 15 -5 48 -13 15 -36
49 -51 75 -24 40 -31 46 -50 40 -60 -19 -70 -17 -165 28 -103 48 -154 67 -137
49z"/>
<path d="M4200 5040 c6 -11 13 -20 16 -20 2 0 0 9 -6 20 -6 11 -13 20 -16 20
-2 0 0 -9 6 -20z"/>
<path d="M3205 4980 c-9 -16 -13 -30 -11 -30 3 0 12 14 21 30 9 17 13 30 11
30 -3 0 -12 -13 -21 -30z"/>
<path d="M4555 4990 c3 -5 11 -10 16 -10 6 0 7 5 4 10 -3 6 -11 10 -16 10 -6
0 -7 -4 -4 -10z"/>
<path d="M4250 4964 c0 -5 7 -18 15 -28 8 -11 15 -16 15 -10 0 5 -7 18 -15 28
-8 11 -15 16 -15 10z"/>
<path d="M5415 4869 c-61 -16 -64 -18 -22 -13 26 3 65 11 85 19 52 19 20 16
-63 -6z"/>
<path d="M5268 4843 c12 -2 32 -2 45 0 12 2 2 4 -23 4 -25 0 -35 -2 -22 -4z"/>
<path d="M2135 4808 c-29 -26 -56 -113 -51 -168 2 -19 4 -45 5 -57 0 -12 14
-37 30 -55 99 -113 103 -118 87 -118 -9 0 -16 -4 -16 -8 0 -17 -51 -11 -71 9
-24 24 -40 21 -54 -9 -13 -29 -19 -28 -57 8 -37 36 -50 26 -37 -29 5 -20 9
-49 9 -66 l0 -30 -37 40 c-19 22 -46 56 -58 75 -22 35 -55 68 -55 56 0 -8 73
-137 95 -169 25 -35 18 -54 -25 -73 -49 -22 -52 -37 -5 -28 54 10 58 10 100
-10 25 -12 51 -35 69 -63 34 -54 45 -50 17 6 -12 22 -21 48 -21 57 0 10 -6 25
-14 33 -17 20 -60 150 -52 159 4 3 26 -14 50 -38 50 -48 91 -74 186 -120 62
-30 144 -53 154 -43 2 3 -15 32 -40 65 -39 53 -54 88 -39 88 3 0 24 -12 46
-26 33 -20 58 -27 129 -31 80 -5 89 -4 109 16 15 15 21 33 21 64 0 51 -22 77
-63 77 -32 0 -89 34 -132 79 -16 17 -35 31 -41 31 -24 0 -22 28 2 41 15 8 28
25 31 42 l6 30 18 -24 c10 -13 19 -19 19 -13 0 17 -68 86 -79 80 -9 -6 -54 25
-82 56 -14 15 -116 88 -124 88 -2 0 -16 -10 -30 -22z"/>
<path d="M2769 4799 c12 -12 25 -18 28 -15 9 9 -18 36 -35 36 -12 0 -11 -5 7
-21z"/>
<path d="M600 4765 c0 -8 -7 -15 -15 -15 -8 0 -15 -5 -15 -10 0 -6 -11 -15
-24 -21 -29 -14 -46 -48 -46 -95 0 -19 -5 -44 -11 -55 -10 -20 -166 -99 -194
-99 -16 0 -20 -16 -6 -24 9 -6 132 36 214 72 25 11 55 31 65 44 95 112 112
133 112 143 0 6 -12 18 -26 25 -17 9 -24 20 -21 32 4 13 -1 18 -14 18 -10 0
-19 -7 -19 -15z"/>
<path d="M5577 4742 c-21 -35 -91 -108 -142 -150 -22 -17 -35 -32 -29 -32 24
0 205 193 192 205 -2 2 -12 -8 -21 -23z"/>
<path d="M4979 4522 c33 -49 77 -120 96 -156 20 -36 41 -68 46 -72 12 -7 11 3
-1 26 -11 20 3 39 15 20 9 -15 43 -12 76 7 27 16 39 42 22 44 -30 3 -58 11
-63 18 -3 4 -20 10 -37 13 -25 3 -30 1 -23 -8 11 -12 3 -44 -10 -44 -4 0 -10
6 -13 13 -7 18 -148 216 -158 223 -5 3 17 -35 50 -84z"/>
<path d="M2467 4581 c-3 -11 1 -22 7 -24 7 -3 13 4 13 14 2 26 -14 33 -20 10z"/>
<path d="M2598 4429 c52 -119 81 -169 97 -163 25 10 127 144 122 162 -3 13 -6
12 -15 -9 -5 -14 -29 -47 -51 -73 l-40 -46 -17 27 c-41 67 -89 134 -105 149
-14 13 -12 3 9 -47z"/>
<path d="M155 4328 c21 -69 159 -290 214 -342 17 -17 31 -40 31 -52 0 -16 7
-23 28 -27 15 -3 29 -4 30 -2 2 2 -14 23 -36 47 -22 24 -59 79 -82 122 -23 44
-51 85 -62 90 -11 6 -41 50 -67 98 -44 84 -70 114 -56 66z"/>
<path d="M5140 4255 c0 -10 75 -155 80 -155 3 0 -11 36 -32 80 -34 70 -48 92
-48 75z"/>
<path d="M1329 4214 c-14 -8 -36 -15 -47 -17 -23 -3 -43 -17 -25 -17 5 0 15
-11 21 -24 6 -14 22 -26 41 -29 31 -7 44 -27 17 -27 -8 0 -18 -4 -21 -10 -3
-5 0 -10 9 -10 22 0 76 49 76 70 0 10 10 21 23 25 20 6 19 7 -11 15 -18 4 -38
14 -45 22 -10 13 -16 13 -38 2z"/>
<path d="M1560 4187 c0 -4 17 -11 39 -17 l38 -10 -63 -97 c-35 -53 -64 -106
-64 -117 1 -21 1 -21 15 -1 8 11 25 31 37 44 13 13 31 35 42 50 11 15 16 19
12 8 -15 -45 -18 -72 -8 -62 8 9 102 173 102 180 0 1 -24 5 -52 8 -29 4 -63 9
-75 13 -13 3 -23 4 -23 1z"/>
<path d="M2070 4183 c0 -8 26 -25 95 -65 17 -9 41 -17 55 -17 21 0 18 3 -15
16 -22 9 -59 29 -82 45 -43 29 -53 33 -53 21z"/>
<path d="M1728 4163 c7 -3 16 -2 19 1 4 3 -2 6 -13 5 -11 0 -14 -3 -6 -6z"/>
<path d="M1301 4038 c-1 -22 54 -85 90 -104 15 -7 38 -14 51 -13 17 0 13 4
-18 17 -50 20 -101 62 -113 94 -7 17 -10 18 -10 6z"/>
<path d="M1557 3929 c-22 -11 -37 -23 -34 -25 5 -6 87 33 87 41 0 9 -14 4 -53
-16z"/>
<path d="M1485 3890 c-3 -6 1 -7 9 -4 18 7 21 14 7 14 -6 0 -13 -4 -16 -10z"/>
<path d="M535 3840 c3 -5 11 -10 16 -10 6 0 7 5 4 10 -3 6 -11 10 -16 10 -6 0
-7 -4 -4 -10z"/>
<path d="M2315 3835 c-16 -8 -52 -14 -80 -15 -33 0 -45 -3 -36 -9 25 -16 151
13 151 34 0 6 2 7 -35 -10z"/>
<path d="M4452 3805 c0 -16 2 -22 5 -12 2 9 2 23 0 30 -3 6 -5 -1 -5 -18z"/>
<path d="M5121 3814 c0 -11 3 -14 6 -6 3 7 2 16 -1 19 -3 4 -6 -2 -5 -13z"/>
<path d="M5335 3705 c3 -22 8 -83 11 -135 4 -52 10 -102 15 -110 7 -12 8 -11
9 6 0 47 -22 239 -31 258 -7 16 -8 11 -4 -19z"/>
<path d="M260 3706 c0 -14 5 -26 10 -26 6 0 10 9 10 19 0 11 -4 23 -10 26 -6
4 -10 -5 -10 -19z"/>
<path d="M120 3698 c0 -13 122 -140 128 -133 2 2 -3 22 -11 43 -9 22 -13 42
-10 45 3 4 -1 13 -10 21 -19 19 -97 38 -97 24z"/>
<path d="M2395 3690 c22 -11 52 -20 66 -20 34 0 115 -46 149 -83 14 -16 38
-31 53 -32 15 -2 27 -3 27 -2 1 1 7 35 14 75 l12 72 -65 -5 c-36 -3 -82 -8
-102 -10 -31 -4 -115 5 -172 20 -12 2 -4 -4 18 -15z"/>
<path d="M5132 3653 c-2 -50 -26 -244 -38 -308 -4 -21 -3 -27 4 -20 14 13 45
279 39 337 -3 42 -4 42 -5 -9z"/>
<path d="M5450 3692 c0 -20 91 -112 132 -133 21 -11 38 -17 38 -14 0 2 -17 13
-37 24 -39 20 -102 80 -121 116 -6 11 -12 14 -12 7z"/>
<path d="M1025 3649 c-64 -39 -150 -79 -195 -91 -19 -5 -89 -10 -156 -11 -144
-2 -159 -10 -150 -72 26 -178 37 -206 119 -305 51 -62 124 -120 277 -220 38
-25 87 -58 109 -74 29 -20 49 -27 70 -24 24 3 31 0 35 -16 11 -41 5 -61 -29
-101 l-35 -40 -24 30 c-33 40 -42 27 -11 -15 14 -19 21 -38 17 -44 -5 -6 -25
-32 -46 -58 -22 -28 -33 -49 -26 -53 5 -3 17 1 26 10 9 9 23 14 30 11 7 -3 16
-1 19 5 4 5 11 7 16 4 5 -3 25 -1 46 4 30 9 42 7 63 -5 l25 -16 -22 22 c-21
23 -21 23 -2 49 19 26 17 67 -2 55 -14 -8 -11 20 3 34 10 10 10 15 -2 22 -13
8 -12 10 3 10 9 0 17 -7 17 -15 0 -8 5 -15 11 -15 6 0 9 7 6 15 -11 26 9 25
35 -3 27 -29 92 -114 145 -188 17 -24 34 -40 38 -34 7 12 -11 41 -91 145 -71
94 -84 116 -84 144 0 14 6 21 19 21 11 0 27 3 37 7 14 5 16 2 10 -20 -21 -87
-20 -83 -3 -68 10 7 17 22 17 32 0 10 5 21 10 24 6 3 10 40 10 81 0 73 0 74
-21 63 -41 -22 -157 -7 -237 30 -47 23 -72 39 -70 49 2 8 25 26 53 40 l49 26
-38 8 c-21 5 -52 20 -70 35 -35 29 -71 83 -56 83 5 0 57 -18 115 -40 58 -22
111 -40 118 -40 7 0 29 -11 49 -25 20 -14 60 -34 90 -45 29 -12 86 -37 127
-56 55 -27 108 -42 210 -60 75 -13 139 -24 143 -24 3 0 -10 -30 -30 -66 -34
-61 -42 -68 -101 -95 -78 -35 -101 -36 -131 -4 -28 30 -41 31 -64 6 -15 -17
-45 -27 -143 -47 -36 -7 -27 -24 12 -24 19 0 34 -3 34 -7 -6 -37 33 -93 66
-93 21 0 19 20 -2 20 -16 1 -16 2 1 15 11 8 16 18 11 22 -4 5 -10 2 -12 -4 -9
-24 -23 -13 -23 17 0 21 -5 30 -17 30 -25 0 -12 6 27 14 25 4 31 3 20 -4 -12
-8 -11 -10 8 -10 12 0 22 5 22 12 0 9 3 9 12 0 9 -9 8 -21 -1 -50 -19 -57 -9
-117 23 -147 25 -23 35 -25 122 -25 94 0 114 -7 72 -28 -20 -9 -16 -11 27 -11
28 -1 77 4 110 10 122 22 110 27 110 -45 0 -49 5 -69 19 -85 10 -11 23 -18 27
-15 5 3 9 -3 10 -13 0 -16 1 -16 9 2 5 11 9 27 9 35 -1 10 -2 11 -6 2 -2 -6
-9 -10 -14 -6 -10 6 -12 47 -3 57 3 3 7 28 9 56 4 48 25 102 50 128 7 7 23 28
35 48 12 19 28 35 36 35 8 0 14 4 14 9 0 5 -61 10 -136 10 -125 1 -181 11
-171 29 3 4 2 15 -2 24 -4 12 -10 15 -20 8 -12 -7 -12 -11 -2 -24 12 -14 5
-16 -60 -15 -41 0 -82 3 -91 6 -26 7 -22 30 7 37 14 4 43 22 64 41 21 19 49
35 62 35 21 0 21 1 5 13 -16 12 -15 15 6 55 27 49 33 52 119 58 36 2 85 11
109 19 23 8 45 15 47 15 11 0 -56 -49 -94 -68 -23 -12 -45 -27 -49 -33 -3 -6
-30 -22 -58 -35 -28 -12 -43 -23 -33 -23 21 -1 81 31 169 89 33 22 63 40 68
40 5 0 17 10 27 23 10 12 53 38 95 56 74 32 107 55 95 67 -3 3 -23 -6 -46 -20
-22 -14 -60 -33 -83 -42 -24 -9 -64 -25 -90 -36 -37 -17 -57 -19 -101 -14 -69
9 -82 22 -68 70 9 34 8 36 -14 36 -12 0 -28 -7 -35 -15 -7 -8 -21 -15 -32 -15
-13 0 -18 -5 -15 -13 10 -26 -10 -39 -69 -44 -74 -7 -239 13 -273 32 -51 29
-123 55 -133 48 -6 -3 -8 -1 -4 5 9 15 -51 48 -114 61 -88 19 -313 113 -352
148 -10 9 -18 30 -18 47 0 20 -8 37 -25 51 -24 20 -24 20 -9 68 l16 47 66 0
c79 0 77 8 -2 14 -69 6 -79 12 -40 26 53 20 114 52 114 59 0 5 18 16 40 26 22
10 40 24 40 32 0 16 4 18 -55 -18z m225 -753 c-1 -21 -39 -96 -50 -96 -6 0
-13 8 -16 18 -3 9 -12 30 -21 45 -18 34 -12 54 19 59 28 5 68 -11 68 -26z
m758 -282 c2 -18 -3 -36 -11 -43 -12 -10 -17 -6 -26 21 -9 24 -14 29 -20 19
-6 -9 -8 -5 -8 13 0 24 3 27 31 24 27 -3 31 -7 34 -34z"/>
<path d="M4391 3554 c0 -11 3 -14 6 -6 3 7 2 16 -1 19 -3 4 -6 -2 -5 -13z"/>
<path d="M5670 3517 c14 -8 39 -17 55 -20 l30 -6 -30 13 c-16 8 -41 16 -55 20
l-25 7 25 -14z"/>
<path d="M382 3495 c0 -16 2 -22 5 -12 2 9 2 23 0 30 -3 6 -5 -1 -5 -18z"/>
<path d="M390 3420 c-1 -114 80 -405 136 -487 14 -21 41 -66 60 -100 32 -56
121 -156 186 -208 40 -33 79 -57 84 -52 5 5 -11 20 -119 115 -127 111 -206
239 -270 437 -20 61 -41 151 -48 200 -12 91 -28 144 -29 95z"/>
<path d="M2324 3391 c-17 -11 -38 -33 -45 -50 -8 -17 -20 -31 -26 -31 -9 0
-13 -13 -12 -37 l2 -38 6 35 c7 34 7 34 15 10 4 -14 18 -33 30 -43 l21 -19
-22 5 c-24 5 -31 -7 -12 -19 6 -3 16 -1 22 5 6 6 32 11 59 11 71 0 107 45 93
116 -13 70 -69 93 -131 55z m96 -21 c26 -26 27 -44 1 -30 -33 17 -51 12 -51
-15 0 -16 -6 -25 -16 -25 -11 0 -15 -8 -12 -27 4 -37 -21 -37 -41 -2 -19 33
-3 77 37 102 36 22 58 21 82 -3z"/>
<path d="M5360 3386 c0 -9 7 -19 16 -23 9 -3 12 -9 7 -12 -12 -8 -40 -87 -48
-136 -11 -68 -81 -199 -139 -262 -30 -32 -80 -74 -112 -93 -82 -48 -111 -70
-91 -70 20 0 145 90 214 154 64 59 126 177 146 276 9 44 18 65 27 65 25 0 89
28 94 41 3 7 -10 14 -34 18 -25 4 -46 15 -59 32 -16 20 -21 22 -21 10z"/>
<path d="M5676 3381 c-4 -5 3 -7 14 -4 23 6 26 13 6 13 -8 0 -17 -4 -20 -9z"/>
<path d="M4525 3135 c17 -13 35 -24 40 -25 6 0 -3 11 -20 25 -16 13 -34 24
-40 25 -5 0 4 -11 20 -25z"/>
<path d="M5020 3068 c-30 -82 -105 -223 -144 -273 -47 -58 -54 -72 -25 -50 54
41 173 258 194 355 11 49 -1 34 -25 -32z"/>
<path d="M4625 3100 c-4 -12 -5 -24 -2 -27 3 -2 8 5 12 17 4 12 5 24 2 27 -3
2 -8 -5 -12 -17z"/>
<path d="M4340 3081 c0 -5 5 -13 10 -16 6 -3 10 -2 10 4 0 5 -4 13 -10 16 -5
3 -10 2 -10 -4z"/>
<path d="M2303 3029 c-18 -12 -33 -23 -33 -25 0 -7 58 25 65 36 9 14 5 13 -32
-11z"/>
<path d="M2205 2980 c-13 -6 -15 -9 -5 -9 8 0 22 4 30 9 18 12 2 12 -25 0z"/>
<path d="M4474 2920 c0 -24 -2 -23 30 -9 29 14 25 29 -7 29 -16 0 -23 -6 -23
-20z"/>
<path d="M4540 2920 c0 -5 11 -10 25 -10 14 0 25 5 25 10 0 6 -11 10 -25 10
-14 0 -25 -4 -25 -10z"/>
<path d="M2290 2900 c-8 -5 -10 -10 -5 -10 6 0 17 5 25 10 8 5 11 10 5 10 -5
0 -17 -5 -25 -10z"/>
<path d="M984 2821 c15 -53 27 -63 15 -14 -5 21 -9 41 -9 46 0 4 -4 7 -9 7 -5
0 -4 -18 3 -39z"/>
<path d="M2178 2853 c7 -3 16 -2 19 1 4 3 -2 6 -13 5 -11 0 -14 -3 -6 -6z"/>
<path d="M2680 2850 c-8 -5 -10 -10 -5 -10 6 0 17 5 25 10 8 5 11 10 5 10 -5
0 -17 -5 -25 -10z"/>
<path d="M4315 2837 c-33 -12 -62 -25 -65 -29 -9 -12 -78 -38 -101 -38 -11 0
-58 -11 -103 -24 -44 -13 -94 -27 -110 -31 -21 -4 -26 -9 -18 -17 8 -8 36 -7
99 2 143 20 206 23 250 11 38 -11 42 -15 46 -49 l4 -37 1 41 2 41 55 6 c55 6
145 48 145 67 0 5 -15 1 -32 -10 -87 -49 -278 -57 -278 -11 0 5 41 26 90 47
127 52 138 75 15 31z m-187 -104 c-10 -2 -28 -2 -40 0 -13 2 -5 4 17 4 22 1
32 -1 23 -4z"/>
<path d="M4195 2835 l-30 -13 38 -1 c22 -1 45 6 53 14 14 13 13 15 -8 15 -13
-1 -36 -7 -53 -15z"/>
<path d="M3478 2784 c-21 -30 -40 -65 -43 -77 -6 -21 -6 -21 6 -2 7 11 15 22
19 25 8 5 62 110 57 110 -1 0 -19 -25 -39 -56z"/>
<path d="M3990 2810 c-14 -4 -18 -9 -10 -10 16 -1 7 -6 -57 -30 -18 -7 -33
-17 -33 -22 0 -14 45 -2 95 24 22 11 60 27 85 34 l45 12 -50 0 c-27 0 -61 -4
-75 -8z"/>
<path d="M2425 2735 c-25 -12 -26 -14 -5 -9 28 7 60 23 45 23 -5 0 -23 -6 -40
-14z"/>
<path d="M4511 2650 c-2 -52 -3 -99 -2 -103 1 -5 -7 -23 -18 -41 -25 -39 -49
-39 -131 2 -60 31 -64 36 -81 114 -12 56 -12 56 -53 60 -22 3 -57 1 -76 -4
-19 -4 -75 -8 -125 -8 -49 -1 -110 -5 -135 -11 -25 -5 -80 -14 -122 -21 l-78
-11 38 -17 c20 -9 76 -22 124 -29 115 -15 125 -19 98 -38 -23 -17 -27 -43 -5
-43 8 0 15 -4 15 -9 0 -15 -18 -23 -25 -11 -15 24 -34 5 -65 -62 -23 -51 -33
-89 -34 -128 -1 -50 1 -55 27 -68 19 -9 32 -11 39 -4 7 7 0 15 -19 24 -26 13
-28 18 -27 64 2 64 27 116 55 112 14 -2 35 14 69 52 27 30 52 52 56 47 4 -4
-4 -20 -18 -35 -14 -15 -33 -39 -43 -54 -15 -25 -15 -29 -2 -43 14 -14 18 -12
33 15 19 32 40 45 49 30 7 -11 -21 -98 -37 -117 -7 -9 -7 -13 0 -13 17 0 91
92 109 138 13 30 22 40 33 36 61 -23 126 -32 203 -27 85 5 86 5 80 -18 l-6
-22 26 19 c15 10 27 26 27 34 0 9 14 32 31 53 28 34 30 39 15 50 -11 9 -16 34
-19 97 l-3 85 -3 -95z"/>
<path d="M2215 2680 c-25 -11 1 -11 35 0 20 6 21 8 5 8 -11 0 -29 -3 -40 -8z"/>
<path d="M3135 2664 c-33 -14 -48 -22 -34 -19 30 5 120 44 104 44 -5 0 -37
-12 -70 -25z"/>
<path d="M2915 2614 c-38 -7 -92 -13 -120 -14 -27 0 -57 -5 -65 -11 -11 -8 6
-9 60 -4 94 7 216 28 226 38 10 10 -17 7 -101 -9z"/>
<path d="M2663 2583 c9 -2 23 -2 30 0 6 3 -1 5 -18 5 -16 0 -22 -2 -12 -5z"/>
<path d="M1211 2567 c2 -1 13 -9 24 -17 19 -14 19 -14 6 3 -7 9 -18 17 -24 17
-6 0 -8 -1 -6 -3z"/>
<path d="M3736 2555 c-9 -26 -7 -32 5 -12 6 10 9 21 6 23 -2 3 -7 -2 -11 -11z"/>
<path d="M3049 2525 c17 -35 55 -81 91 -111 l35 -29 -22 30 c-35 47 -115 132
-104 110z"/>
<path d="M1060 2517 c0 -12 57 -95 95 -138 18 -20 35 -42 37 -50 9 -26 71 44
127 144 35 62 7 41 -42 -31 -57 -85 -67 -94 -87 -79 -17 13 -56 61 -80 97 -25
38 -49 65 -50 57z"/>
<path d="M4715 2469 c-5 -14 21 -129 29 -129 8 0 -2 108 -12 125 -9 18 -11 18
-17 4z"/>
<path d="M708 2462 c-10 -2 -18 -9 -18 -16 0 -44 257 -219 530 -361 116 -60
135 -73 136 -95 1 -14 10 -54 20 -88 l19 -64 64 4 64 3 17 -60 c24 -85 57
-145 79 -145 10 0 55 23 101 50 46 28 86 50 90 50 21 0 44 -45 46 -88 1 -36
-4 -54 -23 -79 -13 -18 -22 -33 -19 -33 3 0 -1 -18 -10 -39 -13 -32 -13 -44
-3 -62 9 -17 9 -24 0 -27 -6 -2 -11 -9 -11 -15 0 -6 -8 -19 -17 -29 -14 -16
-15 -23 -5 -39 10 -16 10 -19 -5 -19 -10 0 -38 9 -62 20 -24 11 -47 20 -52 20
-14 0 -11 -23 10 -62 10 -21 16 -39 14 -42 -6 -6 -105 24 -121 36 -7 6 -15 8
-18 5 -3 -3 24 -19 59 -36 73 -35 119 -39 193 -16 l49 15 50 -52 c28 -29 57
-51 65 -50 11 2 12 1 2 -6 -13 -9 -6 -42 9 -42 5 0 9 -5 9 -12 0 -7 12 -22 26
-34 19 -17 38 -22 82 -23 88 0 158 -18 236 -57 124 -63 217 -144 282 -245 15
-24 40 -58 54 -74 14 -17 42 -78 62 -135 76 -217 85 -299 43 -378 -14 -26 -25
-52 -25 -58 0 -6 -11 -28 -25 -48 l-24 -36 611 0 612 0 -28 29 -28 29 39 7
c50 9 166 57 170 71 2 6 -8 16 -22 22 -24 11 -26 10 -20 -6 9 -31 -73 -58
-160 -53 -165 10 -204 5 -218 -29 l-11 -25 -4 28 c-4 30 -17 36 -26 11 -5 -13
-9 -13 -32 5 -32 25 -52 26 -83 5 -19 -14 -39 -16 -116 -10 -90 6 -94 5 -124
-20 -17 -14 -31 -23 -31 -20 0 3 25 38 55 77 52 67 67 99 46 99 -22 0 -22 41
0 71 17 24 27 29 45 25 12 -3 26 -1 29 5 12 18 49 27 69 17 14 -8 17 -7 13 4
-3 7 -11 32 -18 56 -9 34 -16 42 -35 42 -18 0 -24 6 -25 23 0 12 -3 17 -5 10
-9 -20 -138 -76 -203 -87 -41 -7 -140 38 -181 82 -14 15 -44 40 -67 56 -24 16
-43 34 -43 41 0 6 -12 18 -26 25 -18 10 -24 20 -20 35 5 21 -21 58 -65 88 -28
20 -18 34 32 42 28 5 43 13 46 25 6 22 34 30 79 23 25 -4 35 -2 40 11 3 9 13
16 22 16 8 0 24 7 34 16 16 16 22 16 76 0 32 -9 69 -16 81 -16 51 0 162 -34
172 -52 6 -10 14 -16 20 -13 13 9 11 -19 -3 -33 -9 -9 -9 -12 0 -12 12 0 7
-42 -7 -65 -4 -5 -4 -28 0 -50 l6 -40 2 43 c1 31 8 50 26 67 13 14 28 25 34
25 5 0 12 18 16 39 5 31 11 40 31 44 18 3 28 -1 36 -17 6 -11 25 -38 41 -59
29 -36 31 -42 34 -150 l4 -112 -42 -40 c-31 -29 -38 -41 -27 -43 9 -2 23 -20
31 -41 15 -35 47 -73 47 -54 0 5 32 7 71 5 42 -3 75 0 81 6 15 15 98 4 121
-16 9 -8 17 -23 17 -33 0 -18 31 -39 80 -54 22 -7 21 -3 -16 37 -23 25 -47 61
-53 81 -12 34 -11 38 21 72 18 20 36 48 40 61 6 22 4 23 -20 16 -66 -18 -236
6 -279 40 -7 5 -21 7 -33 3 -18 -6 -19 -4 -9 18 8 18 8 46 1 100 -9 70 -13 78
-51 112 -32 29 -40 42 -35 60 5 19 0 25 -30 35 -25 8 -36 18 -36 31 0 11 4 18
9 15 5 -3 14 0 20 8 8 10 8 26 0 64 -10 41 -10 54 1 67 17 21 23 19 43 -14 26
-43 87 -115 87 -101 0 16 -50 109 -72 133 -26 30 -68 125 -62 140 5 15 44 46
82 66 22 12 23 11 17 -10 -7 -22 -6 -22 26 5 19 16 38 35 42 42 22 38 67 -21
67 -87 0 -41 -2 -40 77 -53 22 -4 33 -1 37 10 10 25 6 40 -5 21 -12 -21 -62
-23 -79 -2 -12 15 -14 64 -6 178 5 69 26 85 116 89 50 1 53 5 29 47 -44 78
-259 186 -259 130 0 -5 -19 -9 -43 -9 -24 0 -48 -5 -53 -10 -7 -7 -40 -1 -105
19 -52 16 -141 44 -198 61 -58 18 -114 38 -125 45 -47 30 -106 18 -106 -21 0
-15 -6 -24 -16 -24 -13 0 -15 -7 -10 -31 5 -24 3 -30 -8 -26 -8 3 -33 11 -55
17 -58 15 -191 73 -240 104 -22 14 -46 26 -52 26 -6 0 -33 -25 -61 -56 -28
-30 -54 -51 -58 -47 -4 4 -13 25 -19 45 -7 21 -17 35 -24 33 -19 -7 -168 116
-211 173 -29 38 -45 52 -64 52 -13 0 -39 8 -56 19 -17 10 -74 26 -126 36 -89
16 -170 41 -170 53 0 3 10 17 23 30 l22 25 -22 -12 c-31 -16 -48 -48 -34 -65
9 -11 0 -15 -44 -20 -71 -8 -105 -24 -105 -49 0 -21 66 -147 83 -159 12 -7
-48 -67 -111 -109 -25 -17 -47 -27 -51 -24 -3 4 -24 73 -47 153 l-41 147 53 3
c30 2 54 7 54 11 0 9 -42 17 -140 27 -76 7 -108 18 -238 81 -222 107 -542 316
-542 353 0 5 10 10 23 12 15 2 18 5 7 9 -8 3 -23 4 -32 1z m2623 -856 c52 -13
130 -39 174 -56 44 -18 115 -45 158 -61 43 -16 87 -34 98 -40 19 -10 20 -12 4
-29 -9 -10 -22 -16 -29 -14 -17 7 -32 -13 -43 -56 -8 -31 -13 -35 -47 -38 -20
-2 -68 4 -106 12 -38 9 -82 16 -97 16 -15 0 -48 10 -73 23 -42 21 -47 27 -71
97 -14 41 -35 94 -47 117 -22 41 -26 53 -18 53 1 0 45 -11 97 -24z m-1271
-376 c41 -15 94 -31 117 -35 40 -6 61 -20 50 -31 -6 -6 -128 25 -142 36 -5 4
-28 13 -51 19 -22 6 -52 21 -65 33 -20 18 -21 20 -4 13 11 -4 54 -20 95 -35z
m730 -16 c25 -8 78 -23 118 -35 41 -12 72 -26 72 -34 0 -16 35 -30 143 -55 49
-12 101 -26 115 -32 15 -5 65 -18 112 -28 104 -21 114 -33 106 -130 -5 -51
-11 -69 -30 -87 -23 -21 -26 -22 -60 -8 -20 9 -67 22 -104 31 -37 8 -95 21
-129 29 -35 8 -82 22 -105 32 -24 11 -63 25 -88 32 -64 18 -86 25 -169 60 -40
17 -80 31 -88 31 -8 0 -34 12 -59 26 -32 19 -42 30 -35 38 6 7 6 18 1 25 -4 8
-6 20 -3 27 2 7 -5 15 -16 19 -12 3 -21 13 -21 21 0 8 -4 14 -10 14 -5 0 -10
5 -10 10 0 6 8 10 18 10 10 0 27 7 38 15 22 18 130 12 204 -11z m-385 -98 c22
-8 50 -15 62 -16 12 0 28 -6 35 -13 7 -7 22 -19 33 -25 32 -20 -91 -4 -140 18
-22 9 -61 25 -87 35 -26 10 -52 23 -58 30 -12 15 86 -4 155 -29z m762 8 c-3
-3 -12 -4 -19 -1 -8 3 -5 6 6 6 11 1 17 -2 13 -5z m313 -24 c0 -15 -9 -35 -21
-46 -16 -15 -24 -16 -39 -6 -11 7 -39 12 -62 12 -27 0 -66 12 -103 30 l-60 29
70 3 c39 2 103 4 143 4 72 1 72 1 72 -26z m-487 -237 c-7 -2 -19 -2 -25 0 -7
3 -2 5 12 5 14 0 19 -2 13 -5z m716 -429 c70 -36 151 -101 151 -122 0 -6 -19
8 -42 31 -37 36 -161 107 -188 107 -5 0 -12 5 -15 10 -12 20 26 9 94 -26z
m-420 -231 c5 -3 -83 -103 -91 -103 -11 0 -10 54 2 85 12 31 48 48 70 32 8 -6
17 -12 19 -14z"/>
<path d="M3145 1000 c-10 -16 3 -25 53 -38 48 -11 82 -6 82 13 0 16 -17 23
-79 31 -33 4 -51 2 -56 -6z"/>
<path d="M3115 950 c-4 -7 -1 -16 6 -21 23 -14 119 -31 137 -24 16 6 16 7 -1
20 -10 7 -39 16 -64 20 -25 4 -51 9 -58 11 -7 3 -16 0 -20 -6z"/>
<path d="M4508 2443 c6 -2 18 -2 25 0 6 3 1 5 -13 5 -14 0 -19 -2 -12 -5z"/>
<path d="M4530 2410 c0 -5 4 -10 10 -10 5 0 26 -11 46 -25 20 -14 42 -25 48
-25 6 1 -5 9 -25 20 -19 10 -41 26 -48 34 -15 18 -31 21 -31 6z"/>
<path d="M1826 2374 c-9 -23 -8 -24 13 -24 19 0 35 23 24 34 -12 11 -31 6 -37
-10z"/>
<path d="M3180 2386 c0 -2 7 -9 15 -16 9 -7 15 -8 15 -2 0 5 -7 12 -15 16 -8
3 -15 4 -15 2z"/>
<path d="M4520 2345 c-6 -16 -9 -36 -7 -44 2 -9 9 2 15 23 13 47 7 62 -8 21z"/>
<path d="M4665 2340 c11 -5 29 -8 40 -8 16 0 15 2 -5 8 -34 11 -60 11 -35 0z"/>
<path d="M1580 2326 c-30 -7 -93 -21 -140 -31 -111 -23 -118 -27 -85 -49 36
-24 102 -46 136 -46 16 0 29 -4 29 -9 0 -14 -48 -22 -88 -15 -34 7 -36 6 -23
-9 9 -12 29 -17 67 -17 36 0 64 -7 89 -21 47 -28 77 -19 116 34 59 81 64 87
82 87 10 0 16 4 13 9 -3 5 1 11 9 15 8 3 15 10 15 16 0 15 -27 12 -55 -6 -17
-11 -29 -13 -38 -7 -18 15 -57 23 -57 12 0 -5 -7 -9 -15 -9 -19 0 -19 5 1 35
18 28 19 28 -56 11z"/>
<path d="M3290 2326 c0 -2 9 -6 20 -9 11 -3 18 -1 14 4 -5 9 -34 13 -34 5z"/>
<path d="M5775 2253 c-30 -45 -33 -68 -7 -55 28 14 96 -6 127 -38 19 -19 35
-54 46 -97 10 -38 18 -57 18 -43 1 48 -22 105 -60 151 -22 26 -39 52 -39 57 0
25 -25 62 -41 62 -10 0 -30 -17 -44 -37z"/>
<path d="M3800 2212 c6 -13 14 -21 18 -18 3 4 -2 14 -12 24 -18 16 -18 16 -6
-6z"/>
<path d="M2426 2205 c4 -8 11 -15 16 -15 6 0 5 6 -2 15 -7 8 -14 15 -16 15 -2
0 -1 -7 2 -15z"/>
<path d="M3290 2200 c-18 -12 -2 -12 25 0 13 6 15 9 5 9 -8 0 -22 -4 -30 -9z"/>
<path d="M4290 2170 c-10 -25 -9 -35 9 -72 26 -53 58 -95 66 -87 3 4 -11 30
-30 59 -31 46 -35 59 -30 92 8 46 2 49 -15 8z"/>
<path d="M5354 2080 c-46 -43 -106 -64 -166 -58 -44 4 -48 -3 -13 -26 22 -14
25 -15 25 -1 0 9 9 15 23 15 38 0 92 19 115 40 11 11 26 20 31 20 10 0 35 39
29 45 -2 2 -22 -14 -44 -35z"/>
<path d="M2925 2085 l-50 -13 40 0 c22 -1 51 5 65 13 30 17 12 17 -55 0z"/>
<path d="M3552 2075 c0 -16 2 -22 5 -12 2 9 2 23 0 30 -3 6 -5 -1 -5 -18z"/>
<path d="M3093 2083 c26 -2 67 -2 90 0 23 2 2 3 -48 3 -49 0 -68 -1 -42 -3z"/>
<path d="M5355 1983 c-4 -35 -11 -61 -14 -58 -15 8 -88 -34 -119 -69 -32 -37
-40 -56 -22 -56 5 0 12 -11 16 -25 6 -25 112 -115 135 -115 15 0 -67 67 -91
75 -27 9 -25 37 5 65 14 13 25 29 25 36 0 16 79 54 113 54 28 0 36 14 15 27
-26 16 -42 46 -48 86 l-7 42 -8 -62z"/>
<path d="M2900 2026 c0 -2 8 -10 18 -17 15 -13 16 -12 3 4 -13 16 -21 21 -21
13z"/>
<path d="M4859 1990 c-14 -8 -15 -16 -7 -47 5 -21 12 -48 15 -61 10 -43 38
-51 146 -43 108 9 142 21 49 18 -47 -2 -71 4 -121 27 -66 32 -82 57 -61 95 12
23 5 26 -21 11z"/>
<path d="M4741 1973 c-83 -4 -83 -4 -65 -24 12 -14 18 -36 18 -74 l1 -55 43 0
c23 0 60 -9 82 -20 51 -26 70 -82 45 -131 -26 -50 -84 -99 -131 -111 -46 -13
-53 -21 -30 -35 17 -11 36 -47 36 -71 0 -11 -10 -32 -22 -47 -12 -16 -24 -37
-25 -47 -2 -15 0 -16 25 -6 15 7 38 19 52 28 48 30 81 40 140 40 59 0 60 0 59
28 0 15 -3 21 -6 15 -9 -24 -23 -13 -23 17 0 34 7 38 24 14 11 -14 16 -12 44
17 35 36 38 52 17 89 -22 38 -18 49 19 56 45 8 135 -32 190 -84 38 -36 38 -36
18 -6 -49 71 -148 118 -227 107 -30 -4 -45 -2 -45 5 0 14 33 32 59 32 12 0 21
6 21 14 0 9 -20 17 -57 24 -69 12 -86 7 -79 -22 3 -12 -1 -43 -9 -68 -12 -41
-12 -46 1 -41 29 11 26 -27 -5 -56 -19 -18 -31 -39 -31 -55 0 -24 -4 -26 -39
-26 -31 0 -43 -6 -65 -32 l-26 -32 0 46 c0 26 -4 50 -10 53 -19 11 -10 23 24
35 34 11 93 67 116 110 6 11 13 42 16 68 3 26 7 52 9 57 7 26 -25 48 -72 50
-129 4 -121 0 -125 48 -3 23 -8 50 -12 60 -7 15 -1 17 57 17 36 0 69 5 72 10
3 6 5 9 3 8 -2 -1 -41 -4 -87 -5z m9 -583 c0 -5 -5 -10 -11 -10 -5 0 -7 5 -4
10 3 6 8 10 11 10 2 0 4 -4 4 -10z"/>
<path d="M2408 1934 c35 -46 60 -69 67 -62 3 2 -19 26 -47 54 -51 49 -51 49
-20 8z"/>
<path d="M4355 1907 c-38 -12 -37 -11 -29 -31 4 -12 16 -16 40 -14 28 2 34 6
34 24 0 30 -9 33 -45 21z"/>
<path d="M5415 1870 c-46 -22 -40 -25 16 -8 22 6 39 15 39 20 0 12 -10 10 -55
-12z"/>
<path d="M3020 1772 c0 -23 4 -42 9 -42 6 0 7 17 4 38 -8 51 -13 53 -13 4z"/>
<path d="M5816 1783 c-6 -14 -5 -15 5 -6 7 7 10 15 7 18 -3 3 -9 -2 -12 -12z"/>
<path d="M4155 1720 c-3 -6 1 -7 9 -4 18 7 21 14 7 14 -6 0 -13 -4 -16 -10z"/>
<path d="M5725 1676 c-54 -48 -59 -71 -6 -32 17 13 51 27 74 30 23 4 49 11 57
17 11 8 1 9 -34 4 -42 -6 -48 -4 -43 9 8 21 9 22 -48 -28z"/>
<path d="M5420 1616 c0 -5 69 -46 77 -46 9 0 -40 36 -59 43 -10 3 -18 5 -18 3z"/>
<path d="M5655 1580 c-3 -5 -1 -10 4 -10 6 0 20 -9 32 -21 27 -27 35 -18 14
15 -18 27 -39 34 -50 16z"/>
<path d="M5530 1550 c8 -5 20 -10 25 -10 6 0 3 5 -5 10 -8 5 -19 10 -25 10 -5
0 -3 -5 5 -10z"/>
<path d="M5283 1490 c6 -22 15 -40 19 -40 11 0 10 5 -6 45 -20 47 -26 44 -13
-5z"/>
<path d="M5818 1503 c6 -2 18 -2 25 0 6 3 1 5 -13 5 -14 0 -19 -2 -12 -5z"/>
<path d="M3829 1323 c21 -44 30 -86 21 -104 -16 -28 4 -30 33 -3 34 31 34 43
2 36 -20 -3 -25 0 -25 16 0 26 -20 72 -32 72 -4 0 -4 -8 1 -17z"/>
<path d="M5864 1318 c3 -13 6 -30 6 -38 0 -9 18 -39 40 -69 22 -29 40 -61 40
-70 0 -17 29 -51 43 -51 4 0 7 50 7 110 0 61 -4 110 -9 110 -16 0 -61 -41 -61
-56 0 -8 -4 -14 -9 -14 -11 0 -41 62 -41 84 0 9 -5 16 -11 16 -7 0 -9 -9 -5
-22z"/>
<path d="M5430 1275 c0 -14 40 -48 48 -41 2 2 -8 15 -22 29 -17 17 -26 21 -26
12z"/>
<path d="M5725 1091 c-9 -29 -3 -36 120 -151 61 -57 117 -112 126 -122 9 -10
19 -18 23 -18 3 0 6 50 6 111 l0 111 -43 -6 c-38 -6 -49 -3 -88 25 -24 17 -49
38 -55 46 -7 7 -28 16 -47 20 -29 4 -36 2 -42 -16z m194 -123 c53 -17 65 -39
44 -77 l-17 -29 -48 48 c-68 69 -63 84 21 58z"/>
<path d="M3666 1091 c-4 -5 3 -7 14 -4 23 6 26 13 6 13 -8 0 -17 -4 -20 -9z"/>
<path d="M3575 1040 c-3 -5 -2 -10 4 -10 5 0 13 5 16 10 3 6 2 10 -4 10 -5 0
-13 -4 -16 -10z"/>
<path d="M3670 1010 c0 -18 102 -220 111 -220 22 0 -7 68 -68 159 -13 19 -23
42 -23 52 0 11 -4 19 -10 19 -5 0 -10 -5 -10 -10z"/>
<path d="M1885 955 c-39 -32 -28 -32 15 0 19 14 30 25 24 25 -5 0 -22 -11 -39
-25z"/>
<path d="M4745 959 c-4 -6 -5 -12 -2 -15 2 -3 7 2 10 11 7 17 1 20 -8 4z"/>
<path d="M3855 907 c-8 -21 -20 -37 -27 -37 -6 0 -8 -3 -5 -7 4 -3 0 -17 -9
-30 -8 -13 -13 -30 -11 -36 2 -7 14 8 26 33 12 25 29 58 37 73 9 16 13 31 10
34 -3 3 -13 -10 -21 -30z"/>
<path d="M1332 887 c-7 -9 -8 -26 -1 -56 11 -47 48 -126 55 -118 3 3 -2 16
-11 30 -9 14 -20 49 -25 78 -7 45 -6 56 8 67 14 11 14 12 0 12 -8 0 -20 -6
-26 -13z"/>
<path d="M4680 828 c-20 -42 -20 -42 -1 -18 19 23 34 60 25 60 -2 0 -13 -19
-24 -42z"/>
<path d="M3686 803 c34 -60 46 -75 52 -69 6 7 -60 116 -71 116 -4 0 4 -21 19
-47z"/>
<path d="M1686 749 c-35 -40 -44 -59 -28 -59 6 0 74 100 67 100 -1 0 -19 -19
-39 -41z"/>
<path d="M2480 771 c0 -5 7 -15 17 -22 15 -13 15 -12 4 9 -12 23 -21 28 -21
13z"/>
<path d="M4630 748 c-11 -18 -20 -36 -20 -40 0 -17 11 -6 30 32 25 48 18 53
-10 8z"/>
<path d="M2520 716 c0 -2 8 -10 18 -17 15 -13 16 -12 3 4 -13 16 -21 21 -21
13z"/>
<path d="M5848 695 c-26 -34 -22 -42 7 -15 25 23 32 40 18 40 -5 0 -16 -11
-25 -25z"/>
<path d="M3810 699 c0 -7 -12 -10 -29 -7 -26 4 -29 2 -20 -14 14 -25 34 -23
53 7 9 14 12 25 6 25 -5 0 -10 -5 -10 -11z"/>
<path d="M3840 664 c0 -9 80 -109 133 -168 39 -43 22 -14 -44 74 -57 76 -89
110 -89 94z"/>
<path d="M1300 629 c0 -9 6 -19 14 -22 7 -3 22 -32 32 -64 19 -63 78 -133 110
-132 15 0 13 3 -6 10 -41 17 -68 49 -86 102 -13 41 -14 51 -3 58 10 6 6 10
-13 18 -15 5 -31 18 -37 28 -9 16 -10 16 -11 2z"/>
<path d="M4561 578 c-24 -70 -21 -92 2 -26 22 59 29 88 24 88 -3 0 -15 -28
-26 -62z"/>
<path d="M1597 562 c-18 -20 -23 -57 -8 -66 8 -5 36 72 28 80 -2 2 -11 -4 -20
-14z"/>
<path d="M4523 483 c-3 -10 -8 -22 -10 -28 -3 -5 3 -1 11 9 16 20 21 36 11 36
-3 0 -8 -8 -12 -17z"/>
<path d="M3575 242 c30 -57 35 -65 35 -52 0 8 -10 26 -21 40 -11 14 -18 19
-14 12z"/>
<path d="M4150 230 c6 -11 13 -20 16 -20 2 0 0 9 -6 20 -6 11 -13 20 -16 20
-2 0 0 -9 6 -20z"/>
<path d="M4181 180 c14 -31 19 -36 19 -24 0 6 -7 19 -16 30 -14 18 -14 18 -3
-6z"/>
<path d="M2598 145 c-2 -27 -2 -54 2 -58 12 -14 19 36 11 73 l-8 35 -5 -50z"/>
<path d="M5492 79 c5 -14 21 -14 26 0 2 6 -4 11 -13 11 -9 0 -15 -5 -13 -11z"/>
</g>
</svg>
